<svg width="183" height="27" viewBox="0 0 183 27" fill="none" xmlns="http://www.w3.org/2000/svg">
<path d="M17.75 17.4062H11.8594C11.4219 18.7812 10.9479 19.974 10.4375 20.9844C9.9375 21.9948 9.38021 22.8333 8.76562 23.5C8.15104 24.1667 7.47396 24.6615 6.73438 24.9844C6.00521 25.3073 5.1875 25.4688 4.28125 25.4688C3.78125 25.4688 3.30208 25.4219 2.84375 25.3281C2.375 25.2448 1.96354 25.125 1.60938 24.9688C1.25521 24.8125 0.973958 24.625 0.765625 24.4062C0.546875 24.1979 0.4375 23.9688 0.4375 23.7188C0.4375 23.5312 0.46875 23.3438 0.53125 23.1562C0.583333 22.9583 0.661458 22.7812 0.765625 22.625C0.869792 22.4583 1 22.3281 1.15625 22.2344C1.30208 22.1302 1.46875 22.0781 1.65625 22.0781C1.82292 22.0781 1.96875 22.1927 2.09375 22.4219C2.21875 22.651 2.38021 22.9062 2.57812 23.1875C2.76562 23.4583 3.01042 23.7083 3.3125 23.9375C3.61458 24.1667 4.03125 24.2812 4.5625 24.2812C5.10417 24.2812 5.61979 24.151 6.10938 23.8906C6.59896 23.6302 7.06771 23.224 7.51562 22.6719C7.97396 22.1094 8.41146 21.3958 8.82812 20.5312C9.24479 19.6667 9.65104 18.625 10.0469 17.4062H6.35938V16.0312H10.4531C10.7969 14.8646 11.1302 13.6875 11.4531 12.5C11.7865 11.3125 12.099 10.1719 12.3906 9.07812C12.6823 7.98438 12.9427 6.96354 13.1719 6.01562C13.401 5.05729 13.5938 4.22396 13.75 3.51562C13.5417 2.93229 13.2552 2.54167 12.8906 2.34375C12.5365 2.14583 12.0573 2.04688 11.4531 2.04688C10.8906 2.04688 10.3073 2.13542 9.70312 2.3125C9.10938 2.47917 8.56771 2.72396 8.07812 3.04688C7.58854 3.35938 7.18229 3.75 6.85938 4.21875C6.54688 4.67708 6.39062 5.19271 6.39062 5.76562C6.39062 6.09896 6.43229 6.36458 6.51562 6.5625C6.60938 6.76042 6.71354 6.91146 6.82812 7.01562C6.95312 7.10938 7.07292 7.17188 7.1875 7.20312C7.30208 7.22396 7.39062 7.23438 7.45312 7.23438C7.70312 7.23438 7.91146 7.19271 8.07812 7.10938C8.25521 7.01562 8.40625 6.92188 8.53125 6.82812C8.66667 6.72396 8.79688 6.63021 8.92188 6.54688C9.04688 6.45312 9.1875 6.40625 9.34375 6.40625C9.45833 6.40625 9.58333 6.4375 9.71875 6.5C9.86458 6.55208 9.99479 6.64062 10.1094 6.76562C10.2344 6.89062 10.3385 7.05729 10.4219 7.26562C10.5052 7.46354 10.5469 7.70833 10.5469 8C10.5469 8.41667 10.4635 8.77604 10.2969 9.07812C10.1406 9.38021 9.93229 9.63542 9.67188 9.84375C9.42188 10.0417 9.13021 10.1927 8.79688 10.2969C8.47396 10.3906 8.15104 10.4375 7.82812 10.4375C7.32812 10.4375 6.875 10.349 6.46875 10.1719C6.07292 9.98438 5.73438 9.73438 5.45312 9.42188C5.17188 9.10938 4.95833 8.74479 4.8125 8.32812C4.66667 7.91146 4.59375 7.47396 4.59375 7.01562C4.59375 6.32812 4.70833 5.69792 4.9375 5.125C5.16667 4.54167 5.48438 4.01562 5.89062 3.54688C6.29688 3.06771 6.77604 2.65104 7.32812 2.29688C7.88021 1.93229 8.47396 1.63021 9.10938 1.39062C9.75521 1.14062 10.4271 0.953125 11.125 0.828125C11.8229 0.703125 12.526 0.640625 13.2344 0.640625C14.2344 0.640625 15.0781 0.723958 15.7656 0.890625C16.4635 1.04688 17.0469 1.28646 17.5156 1.60938C17.9844 1.92188 18.3594 2.32292 18.6406 2.8125C18.9323 3.29167 19.1719 3.84896 19.3594 4.48438L22.7188 16.0312H26.1094V17.4062H23.0938L24.3125 21.5C24.3542 21.6562 24.3958 21.8021 24.4375 21.9375C24.4792 22.0729 24.526 22.1927 24.5781 22.2969C24.6406 22.3906 24.7135 22.4688 24.7969 22.5312C24.8906 22.5938 25.0052 22.625 25.1406 22.625C25.4323 22.625 25.7031 22.5781 25.9531 22.4844C26.2031 22.3802 26.4219 22.276 26.6094 22.1719L26.875 22.75C26.6875 22.8854 26.4479 23.0417 26.1562 23.2188C25.875 23.3854 25.5469 23.5469 25.1719 23.7031C24.8073 23.8594 24.401 23.9896 23.9531 24.0938C23.5052 24.1979 23.026 24.25 22.5156 24.25C21.8073 24.25 21.2344 24.1615 20.7969 23.9844C20.3698 23.8073 20.0312 23.5885 19.7812 23.3281C19.5417 23.0677 19.3646 22.7917 19.25 22.5C19.1458 22.2083 19.0625 21.9531 19 21.7344L17.75 17.4062ZM14.7188 6.84375C14.2917 8.58333 13.875 10.2188 13.4688 11.75C13.0729 13.2812 12.6771 14.7083 12.2812 16.0312H17.375L14.7188 6.84375ZM33.8125 11.0781C34.2083 10.474 34.6302 9.92708 35.0781 9.4375C35.2656 9.22917 35.4688 9.02604 35.6875 8.82812C35.9062 8.63021 36.1302 8.45312 36.3594 8.29688C36.599 8.14062 36.8438 8.01562 37.0938 7.92188C37.3438 7.82812 37.5938 7.78125 37.8438 7.78125C38.375 7.78125 38.7917 7.94271 39.0938 8.26562C39.3958 8.57812 39.5469 9.02083 39.5469 9.59375C39.5469 9.94792 39.5156 10.2917 39.4531 10.625C39.401 10.9479 39.2917 11.3438 39.125 11.8125H38.6875C38.625 11.4896 38.4792 11.224 38.25 11.0156C38.0208 10.7969 37.6875 10.6875 37.25 10.6875C36.9271 10.6875 36.6094 10.75 36.2969 10.875C35.9844 10.9896 35.6771 11.1354 35.375 11.3125C35.0833 11.4896 34.8021 11.6823 34.5312 11.8906C34.2708 12.099 34.0312 12.2969 33.8125 12.4844V22.625C33.8125 22.7604 33.7917 22.9219 33.75 23.1094C33.7083 23.2969 33.6042 23.474 33.4375 23.6406C33.2812 23.8073 33.0417 23.9479 32.7188 24.0625C32.4062 24.1875 31.974 24.25 31.4219 24.25C30.8698 24.25 30.4323 24.1823 30.1094 24.0469C29.7969 23.9219 29.5573 23.7708 29.3906 23.5938C29.224 23.4167 29.1198 23.2344 29.0781 23.0469C29.0365 22.8594 29.0156 22.7083 29.0156 22.5938V10.5312C29.0156 10.2292 28.9427 9.96875 28.7969 9.75C28.6615 9.52083 28.4271 9.40625 28.0938 9.40625C27.9167 9.40625 27.7656 9.4375 27.6406 9.5C27.5156 9.5625 27.3802 9.65104 27.2344 9.76562L26.9062 9.375C27.1458 9.17708 27.4115 8.98438 27.7031 8.79688C28.0052 8.59896 28.3281 8.42708 28.6719 8.28125C29.0156 8.13542 29.3854 8.01562 29.7812 7.92188C30.1771 7.82812 30.5938 7.78125 31.0312 7.78125C31.4792 7.78125 31.8594 7.84375 32.1719 7.96875C32.4948 8.08333 32.7552 8.23958 32.9531 8.4375C33.1615 8.625 33.3229 8.83854 33.4375 9.07812C33.5521 9.31771 33.6354 9.5625 33.6875 9.8125C33.75 10.0521 33.7865 10.2865 33.7969 10.5156C33.8073 10.7344 33.8125 10.9219 33.8125 11.0781ZM46.6094 9.125V20.6719C46.6094 21.224 46.7135 21.6094 46.9219 21.8281C47.1302 22.0365 47.4167 22.1406 47.7812 22.1406C48.0625 22.1406 48.3125 22.0625 48.5312 21.9062C48.75 21.75 48.9375 21.5729 49.0938 21.375C49.2812 21.1562 49.4427 20.901 49.5781 20.6094L50.0625 20.8281C49.9062 21.1615 49.7188 21.526 49.5 21.9219C49.2917 22.3177 49.0104 22.6875 48.6562 23.0312C48.3021 23.3646 47.8542 23.6458 47.3125 23.875C46.7812 24.1042 46.1094 24.2188 45.2969 24.2188C44.8385 24.2188 44.3958 24.151 43.9688 24.0156C43.5521 23.8802 43.1771 23.6667 42.8438 23.375C42.5208 23.0833 42.2604 22.7188 42.0625 22.2812C41.8646 21.8438 41.7656 21.3177 41.7656 20.7031V9.125H40.0156V8C40.3073 8 40.7135 7.92708 41.2344 7.78125C41.7552 7.625 42.2865 7.36979 42.8281 7.01562C43.3802 6.66146 43.8906 6.1875 44.3594 5.59375C44.8281 5 45.1615 4.26562 45.3594 3.39062H46.6094V8H49.1562C49.9896 8 50.4062 7.85938 50.4062 7.57812C50.4062 7.47396 50.3542 7.40625 50.25 7.375C50.1458 7.33333 50.026 7.28646 49.8906 7.23438C49.7656 7.17188 49.651 7.08854 49.5469 6.98438C49.4427 6.88021 49.3906 6.70833 49.3906 6.46875C49.3906 6.17708 49.4792 5.94792 49.6562 5.78125C49.8438 5.61458 50.0833 5.53125 50.375 5.53125C50.5625 5.53125 50.724 5.57292 50.8594 5.65625C51.0052 5.72917 51.125 5.83333 51.2188 5.96875C51.3125 6.09375 51.3802 6.23958 51.4219 6.40625C51.474 6.57292 51.5 6.73958 51.5 6.90625C51.5 7.58333 51.3021 8.125 50.9062 8.53125C50.5208 8.92708 49.8958 9.125 49.0312 9.125H46.6094ZM57.9844 3.39062C57.9844 3.05729 57.8594 2.8125 57.6094 2.65625C57.3698 2.48958 57.1042 2.40625 56.8125 2.40625C56.2292 2.40625 55.6615 2.49479 55.1094 2.67188C54.5573 2.83854 54.0625 3.07292 53.625 3.375C53.1875 3.66667 52.8333 4.02083 52.5625 4.4375C52.3021 4.84375 52.1719 5.28646 52.1719 5.76562C52.1719 6.09896 52.2135 6.36458 52.2969 6.5625C52.3906 6.76042 52.4948 6.91146 52.6094 7.01562C52.724 7.10938 52.8385 7.17188 52.9531 7.20312C53.0781 7.22396 53.1667 7.23438 53.2188 7.23438C53.4792 7.23438 53.6927 7.19271 53.8594 7.10938C54.026 7.01562 54.1771 6.92188 54.3125 6.82812C54.4479 6.72396 54.5729 6.63021 54.6875 6.54688C54.8125 6.45312 54.9531 6.40625 55.1094 6.40625C55.2344 6.40625 55.3646 6.4375 55.5 6.5C55.6458 6.55208 55.776 6.64062 55.8906 6.76562C56.0156 6.89062 56.1198 7.05729 56.2031 7.26562C56.2865 7.46354 56.3281 7.70833 56.3281 8C56.3281 8.41667 56.2448 8.77604 56.0781 9.07812C55.9219 9.38021 55.7135 9.63542 55.4531 9.84375C55.2031 10.0417 54.9115 10.1927 54.5781 10.2969C54.2552 10.3906 53.9323 10.4375 53.6094 10.4375C53.1094 10.4375 52.6562 10.3542 52.25 10.1875C51.8542 10.0104 51.5156 9.77083 51.2344 9.46875C50.9531 9.16667 50.7396 8.8125 50.5938 8.40625C50.4479 8 50.375 7.56771 50.375 7.10938C50.375 5.80729 50.7031 4.73958 51.3594 3.90625C52.0156 3.0625 52.9062 2.40104 54.0312 1.92188C55.1667 1.43229 56.4844 1.09896 57.9844 0.921875C59.4948 0.734375 61.099 0.640625 62.7969 0.640625C64.7344 0.640625 66.4844 0.838542 68.0469 1.23438C69.6198 1.61979 70.9635 2.25 72.0781 3.125C73.1927 4 74.0521 5.14583 74.6562 6.5625C75.2604 7.96875 75.5625 9.6875 75.5625 11.7188C75.5625 13.75 75.2396 15.5521 74.5938 17.125C73.9583 18.6979 73.0833 20.0208 71.9688 21.0938C70.8646 22.1562 69.5625 22.9688 68.0625 23.5312C66.5729 24.0833 64.974 24.3594 63.2656 24.3594C62.1302 24.3594 61.2135 24.3021 60.5156 24.1875C59.8281 24.0833 59.2969 23.901 58.9219 23.6406C58.5469 23.3698 58.2969 23.0156 58.1719 22.5781C58.0469 22.1302 57.9844 21.5677 57.9844 20.8906V3.39062ZM63.1406 21.0312C63.1406 21.625 63.2708 22.0521 63.5312 22.3125C63.8021 22.5625 64.1979 22.6875 64.7188 22.6875C65.5 22.6875 66.2188 22.5156 66.875 22.1719C67.5417 21.8281 68.1146 21.2396 68.5938 20.4062C69.0729 19.5625 69.4479 18.4427 69.7188 17.0469C69.9896 15.651 70.125 13.8958 70.125 11.7812C70.125 10.3646 70.0365 9.14062 69.8594 8.10938C69.6927 7.06771 69.4688 6.1875 69.1875 5.46875C68.9062 4.73958 68.5833 4.15104 68.2188 3.70312C67.8646 3.24479 67.5 2.89062 67.125 2.64062C66.75 2.38021 66.3802 2.20833 66.0156 2.125C65.6615 2.03125 65.3438 1.98438 65.0625 1.98438C64.3854 1.98438 63.8958 2.13542 63.5938 2.4375C63.2917 2.73958 63.1406 3.28125 63.1406 4.0625V21.0312ZM83.7812 22.5938C83.7812 22.7292 83.7552 22.8958 83.7031 23.0938C83.6615 23.2812 83.5521 23.4635 83.375 23.6406C83.2083 23.8073 82.9635 23.9479 82.6406 24.0625C82.3177 24.1875 81.8802 24.25 81.3281 24.25C80.776 24.25 80.3438 24.1823 80.0312 24.0469C79.7188 23.9219 79.4844 23.7708 79.3281 23.5938C79.1719 23.4167 79.0729 23.2344 79.0312 23.0469C79 22.8594 78.9844 22.7083 78.9844 22.5938V10.5312C78.9844 10.2292 78.9115 9.96875 78.7656 9.75C78.6302 9.52083 78.3958 9.40625 78.0625 9.40625C77.8854 9.40625 77.7344 9.4375 77.6094 9.5C77.4844 9.5625 77.349 9.65104 77.2031 9.76562L76.875 9.375C77.1146 9.17708 77.3802 8.98438 77.6719 8.79688C77.974 8.59896 78.2969 8.42708 78.6406 8.28125C78.9844 8.13542 79.3542 8.01562 79.75 7.92188C80.1458 7.82812 80.5625 7.78125 81 7.78125C81.6771 7.78125 82.2031 7.875 82.5781 8.0625C82.9531 8.23958 83.2292 8.46354 83.4062 8.73438C83.5833 8.99479 83.6875 9.27604 83.7188 9.57812C83.7604 9.88021 83.7812 10.1458 83.7812 10.375V22.5938ZM78.5 4.21875C78.5 3.92708 78.5625 3.65104 78.6875 3.39062C78.8229 3.11979 79.0052 2.88542 79.2344 2.6875C79.474 2.48958 79.7448 2.33333 80.0469 2.21875C80.3594 2.10417 80.6979 2.04688 81.0625 2.04688C81.4167 2.04688 81.7448 2.10417 82.0469 2.21875C82.3594 2.33333 82.6302 2.48958 82.8594 2.6875C83.0885 2.88542 83.2656 3.11979 83.3906 3.39062C83.526 3.65104 83.5938 3.92708 83.5938 4.21875C83.5938 4.52083 83.526 4.80208 83.3906 5.0625C83.2656 5.32292 83.0885 5.55208 82.8594 5.75C82.6302 5.9375 82.3594 6.08854 82.0469 6.20312C81.7448 6.31771 81.4167 6.375 81.0625 6.375C80.6979 6.375 80.3594 6.31771 80.0469 6.20312C79.7448 6.08854 79.474 5.9375 79.2344 5.75C79.0052 5.55208 78.8229 5.32292 78.6875 5.0625C78.5625 4.80208 78.5 4.52083 78.5 4.21875ZM96.9219 16.2188C96.9219 14.9062 96.8594 13.8594 96.7344 13.0781C96.6198 12.2865 96.4635 11.6875 96.2656 11.2812C96.0677 10.8646 95.849 10.5938 95.6094 10.4688C95.3698 10.3333 95.125 10.2656 94.875 10.2656C94.5729 10.2656 94.3021 10.349 94.0625 10.5156C93.8333 10.6719 93.6302 10.8542 93.4531 11.0625C93.2865 11.2708 93.1406 11.4792 93.0156 11.6875C92.901 11.8958 92.8021 12.0521 92.7188 12.1562V22.5938C92.7188 22.7292 92.6979 22.8958 92.6562 23.0938C92.6146 23.2812 92.5104 23.4635 92.3438 23.6406C92.1875 23.8073 91.9479 23.9479 91.625 24.0625C91.3125 24.1875 90.8802 24.25 90.3281 24.25C89.776 24.25 89.3385 24.1823 89.0156 24.0469C88.7031 23.9219 88.4635 23.7708 88.2969 23.5938C88.1302 23.4167 88.026 23.2344 87.9844 23.0469C87.9427 22.8594 87.9219 22.7083 87.9219 22.5938V10.5312C87.9219 10.2292 87.849 9.96875 87.7031 9.75C87.5677 9.52083 87.3333 9.40625 87 9.40625C86.8229 9.40625 86.6719 9.4375 86.5469 9.5C86.4219 9.5625 86.2865 9.65104 86.1406 9.76562L85.8125 9.375C86.0521 9.17708 86.3177 8.98438 86.6094 8.79688C86.9115 8.59896 87.2344 8.42708 87.5781 8.28125C87.9219 8.13542 88.2917 8.01562 88.6875 7.92188C89.0833 7.82812 89.5 7.78125 89.9375 7.78125C90.6146 7.78125 91.1406 7.89583 91.5156 8.125C91.8906 8.34375 92.1667 8.60938 92.3438 8.92188C92.5208 9.23438 92.625 9.5625 92.6562 9.90625C92.6979 10.2396 92.7188 10.5208 92.7188 10.75C93.1042 10.1979 93.5417 9.70312 94.0312 9.26562C94.2292 9.07812 94.4479 8.89583 94.6875 8.71875C94.9375 8.54167 95.1979 8.38542 95.4688 8.25C95.75 8.10417 96.0417 7.98958 96.3438 7.90625C96.6562 7.82292 96.974 7.78125 97.2969 7.78125C98.0052 7.78125 98.6302 7.91667 99.1719 8.1875C99.724 8.45833 100.188 8.91146 100.562 9.54688C100.938 10.1823 101.224 11.026 101.422 12.0781C101.62 13.1198 101.719 14.4167 101.719 15.9688C101.719 17.4792 101.583 18.7917 101.312 19.9062C101.042 21.0208 100.688 21.9688 100.25 22.75C99.8125 23.5312 99.3177 24.1667 98.7656 24.6562C98.2135 25.1562 97.6562 25.5469 97.0938 25.8281C96.5312 26.1094 95.9896 26.3021 95.4688 26.4062C94.9583 26.5208 94.5156 26.5833 94.1406 26.5938L93.9688 25.9531C94.2812 25.8802 94.5677 25.7656 94.8281 25.6094C95.099 25.4531 95.3438 25.224 95.5625 24.9219C95.7812 24.6198 95.974 24.2396 96.1406 23.7812C96.3073 23.3125 96.4479 22.7292 96.5625 22.0312C96.6875 21.3333 96.776 20.5104 96.8281 19.5625C96.8906 18.6042 96.9219 17.4896 96.9219 16.2188ZM108.984 16.8281C108.984 17.1615 109.031 17.526 109.125 17.9219C109.229 18.3073 109.375 18.6979 109.562 19.0938C109.75 19.4896 109.979 19.8698 110.25 20.2344C110.531 20.5885 110.849 20.9062 111.203 21.1875C111.568 21.4688 111.969 21.6927 112.406 21.8594C112.844 22.026 113.323 22.1094 113.844 22.1094C114.208 22.1094 114.547 22.0677 114.859 21.9844C115.172 21.901 115.464 21.7865 115.734 21.6406C116.005 21.4948 116.266 21.3281 116.516 21.1406C116.766 20.9427 117.016 20.7344 117.266 20.5156L117.656 20.8906C117.417 21.2135 117.109 21.5677 116.734 21.9531C116.359 22.3385 115.906 22.7031 115.375 23.0469C114.844 23.3802 114.224 23.6615 113.516 23.8906C112.807 24.1094 112 24.2188 111.094 24.2188C110.188 24.2188 109.302 24.0573 108.438 23.7344C107.583 23.401 106.823 22.9062 106.156 22.25C105.49 21.5938 104.953 20.776 104.547 19.7969C104.151 18.8177 103.953 17.6719 103.953 16.3594C103.953 15.4115 104.073 14.5417 104.312 13.75C104.552 12.9583 104.875 12.2448 105.281 11.6094C105.698 10.974 106.177 10.4167 106.719 9.9375C107.271 9.45833 107.849 9.0625 108.453 8.75C109.057 8.42708 109.672 8.1875 110.297 8.03125C110.932 7.86458 111.542 7.78125 112.125 7.78125C112.896 7.78125 113.568 7.86458 114.141 8.03125C114.714 8.19792 115.188 8.42188 115.562 8.70312C115.948 8.98438 116.234 9.3125 116.422 9.6875C116.609 10.0521 116.703 10.4375 116.703 10.8438C116.703 11.3333 116.562 11.776 116.281 12.1719C116 12.5573 115.625 12.8958 115.156 13.1875L108.984 16.8281ZM112.125 13.6562C112.26 13.5729 112.37 13.4948 112.453 13.4219C112.547 13.3385 112.62 13.2448 112.672 13.1406C112.724 13.026 112.76 12.8906 112.781 12.7344C112.812 12.5677 112.828 12.3646 112.828 12.125C112.828 11.8646 112.797 11.5781 112.734 11.2656C112.682 10.9427 112.589 10.6406 112.453 10.3594C112.318 10.0781 112.146 9.84375 111.938 9.65625C111.729 9.46875 111.479 9.375 111.188 9.375C110.812 9.375 110.49 9.48958 110.219 9.71875C109.958 9.9375 109.74 10.224 109.562 10.5781C109.396 10.9323 109.26 11.3385 109.156 11.7969C109.062 12.2448 108.99 12.6979 108.938 13.1562C108.885 13.6146 108.854 14.0573 108.844 14.4844C108.833 14.901 108.828 15.2552 108.828 15.5469L112.125 13.6562ZM117.812 7.42188C117.812 6.20312 118.146 5.16667 118.812 4.3125C119.49 3.45833 120.411 2.76042 121.578 2.21875C122.745 1.66667 124.104 1.26562 125.656 1.01562C127.208 0.765625 128.87 0.640625 130.641 0.640625C131.484 0.640625 132.307 0.651042 133.109 0.671875C133.911 0.682292 134.641 0.703125 135.297 0.734375C135.964 0.765625 136.536 0.802083 137.016 0.84375C137.495 0.885417 137.844 0.932292 138.062 0.984375C138.271 1.03646 138.438 1.09375 138.562 1.15625C138.688 1.21875 138.781 1.29167 138.844 1.375C138.906 1.45833 138.948 1.55729 138.969 1.67188C138.99 1.77604 139 1.90104 139 2.04688C139 2.17188 138.984 2.3125 138.953 2.46875C138.922 2.61458 138.875 2.75521 138.812 2.89062C138.75 3.01562 138.672 3.125 138.578 3.21875C138.484 3.3125 138.37 3.35938 138.234 3.35938C138.151 3.35938 138.057 3.32292 137.953 3.25C137.859 3.17708 137.719 3.08333 137.531 2.96875C137.354 2.85417 137.109 2.73438 136.797 2.60938C136.495 2.48438 136.083 2.36458 135.562 2.25C135.052 2.13542 134.411 2.04167 133.641 1.96875C132.88 1.89583 131.958 1.85938 130.875 1.85938V11.875H137.359V13.25H130.875V19.3594C130.875 19.849 130.948 20.2708 131.094 20.625C131.24 20.9688 131.448 21.2552 131.719 21.4844C131.99 21.7135 132.312 21.8802 132.688 21.9844C133.073 22.0885 133.5 22.1406 133.969 22.1406C134.5 22.1406 135.031 22.0885 135.562 21.9844C136.094 21.8698 136.594 21.7292 137.062 21.5625C137.542 21.3958 137.974 21.2083 138.359 21C138.755 20.7917 139.073 20.5885 139.312 20.3906L139.922 21.0625C139.661 21.2708 139.312 21.5573 138.875 21.9219C138.438 22.276 137.901 22.625 137.266 22.9688C136.641 23.3125 135.906 23.6146 135.062 23.875C134.229 24.125 133.281 24.25 132.219 24.25C131.865 24.25 131.458 24.2292 131 24.1875C130.552 24.1562 130.089 24.0885 129.609 23.9844C129.13 23.8698 128.656 23.7083 128.188 23.5C127.729 23.2812 127.318 22.9948 126.953 22.6406C126.599 22.2865 126.307 21.8542 126.078 21.3438C125.859 20.8229 125.75 20.2031 125.75 19.4844V13.25H123.312V11.875H125.75V2.04688C125.417 2.07812 125.031 2.14062 124.594 2.23438C124.167 2.31771 123.724 2.44271 123.266 2.60938C122.818 2.76562 122.375 2.95312 121.938 3.17188C121.5 3.39062 121.109 3.64583 120.766 3.9375C120.422 4.22917 120.141 4.55729 119.922 4.92188C119.714 5.27604 119.609 5.66146 119.609 6.07812C119.609 6.41146 119.651 6.67708 119.734 6.875C119.828 7.07292 119.932 7.22396 120.047 7.32812C120.161 7.42188 120.276 7.48438 120.391 7.51562C120.516 7.53646 120.604 7.54688 120.656 7.54688C120.917 7.54688 121.13 7.50521 121.297 7.42188C121.464 7.32812 121.615 7.23438 121.75 7.14062C121.885 7.03646 122.01 6.94271 122.125 6.85938C122.25 6.76562 122.391 6.71875 122.547 6.71875C122.672 6.71875 122.802 6.75 122.938 6.8125C123.083 6.86458 123.214 6.95312 123.328 7.07812C123.453 7.20312 123.557 7.36979 123.641 7.57812C123.724 7.77604 123.766 8.02083 123.766 8.3125C123.766 8.72917 123.682 9.09375 123.516 9.40625C123.359 9.70833 123.151 9.95833 122.891 10.1562C122.641 10.3542 122.349 10.5052 122.016 10.6094C121.693 10.7031 121.37 10.75 121.047 10.75C120.547 10.75 120.094 10.6667 119.688 10.5C119.292 10.3229 118.953 10.0833 118.672 9.78125C118.391 9.47917 118.177 9.13021 118.031 8.73438C117.885 8.32812 117.812 7.89062 117.812 7.42188ZM148.922 15.9062C148.922 15.6458 148.839 15.4479 148.672 15.3125C148.505 15.1771 148.292 15.1094 148.031 15.1094C147.667 15.1094 147.318 15.1927 146.984 15.3594C146.661 15.526 146.375 15.7708 146.125 16.0938C145.875 16.4167 145.677 16.8177 145.531 17.2969C145.385 17.7656 145.312 18.3125 145.312 18.9375C145.312 19.5417 145.354 20.0417 145.438 20.4375C145.531 20.8333 145.651 21.151 145.797 21.3906C145.953 21.6198 146.13 21.7812 146.328 21.875C146.526 21.9688 146.734 22.0156 146.953 22.0156C147.224 22.0156 147.479 21.9479 147.719 21.8125C147.958 21.6667 148.167 21.4844 148.344 21.2656C148.521 21.0469 148.661 20.8021 148.766 20.5312C148.87 20.2604 148.922 19.9896 148.922 19.7188V15.9062ZM146.438 9.0625C146.083 9.0625 145.755 9.10417 145.453 9.1875C145.151 9.27083 144.891 9.375 144.672 9.5C144.453 9.625 144.281 9.76562 144.156 9.92188C144.031 10.0677 143.969 10.2083 143.969 10.3438C143.969 10.5 144.047 10.6146 144.203 10.6875C144.37 10.75 144.552 10.8281 144.75 10.9219C144.948 11.0052 145.125 11.1302 145.281 11.2969C145.448 11.4531 145.531 11.6979 145.531 12.0312C145.531 12.25 145.484 12.4531 145.391 12.6406C145.307 12.8177 145.188 12.9792 145.031 13.125C144.885 13.2604 144.708 13.3698 144.5 13.4531C144.302 13.526 144.094 13.5625 143.875 13.5625C143.292 13.5625 142.818 13.3646 142.453 12.9688C142.099 12.5729 141.922 12.0469 141.922 11.3906C141.922 10.7552 142.089 10.2135 142.422 9.76562C142.755 9.30729 143.188 8.93229 143.719 8.64062C144.26 8.34896 144.87 8.13542 145.547 8C146.224 7.85417 146.901 7.78125 147.578 7.78125C148.391 7.78125 149.167 7.86979 149.906 8.04688C150.646 8.22396 151.297 8.50521 151.859 8.89062C152.432 9.27604 152.885 9.76562 153.219 10.3594C153.562 10.9531 153.734 11.6719 153.734 12.5156V21.3438C153.734 21.4375 153.74 21.5417 153.75 21.6562C153.76 21.7708 153.786 21.875 153.828 21.9688C153.87 22.0625 153.932 22.1406 154.016 22.2031C154.099 22.2656 154.219 22.2969 154.375 22.2969C154.562 22.2969 154.734 22.2292 154.891 22.0938C155.057 21.9479 155.203 21.8021 155.328 21.6562L155.719 21.9844C155.562 22.2031 155.375 22.4427 155.156 22.7031C154.938 22.9635 154.672 23.2083 154.359 23.4375C154.047 23.6667 153.682 23.8594 153.266 24.0156C152.849 24.1719 152.375 24.25 151.844 24.25C151.188 24.25 150.604 24.0573 150.094 23.6719C149.583 23.276 149.25 22.6719 149.094 21.8594C148.76 22.3073 148.411 22.6823 148.047 22.9844C147.693 23.2865 147.328 23.5312 146.953 23.7188C146.578 23.9062 146.198 24.0417 145.812 24.125C145.438 24.2083 145.057 24.25 144.672 24.25C144.172 24.25 143.688 24.1719 143.219 24.0156C142.75 23.8594 142.328 23.6146 141.953 23.2812C141.589 22.9375 141.292 22.4948 141.062 21.9531C140.844 21.4115 140.734 20.75 140.734 19.9688C140.734 19.0208 140.922 18.2448 141.297 17.6406C141.672 17.0365 142.161 16.5312 142.766 16.125C143.38 15.7083 144.073 15.3542 144.844 15.0625C145.625 14.7708 146.422 14.4635 147.234 14.1406C147.839 13.901 148.276 13.5469 148.547 13.0781C148.828 12.599 148.969 12.1094 148.969 11.6094C148.969 10.8385 148.74 10.224 148.281 9.76562C147.833 9.29688 147.219 9.0625 146.438 9.0625ZM162.844 9.03125C162.604 9.03125 162.375 9.0625 162.156 9.125C161.948 9.1875 161.76 9.29167 161.594 9.4375C161.427 9.57292 161.297 9.75 161.203 9.96875C161.109 10.1771 161.062 10.4271 161.062 10.7188C161.062 11.125 161.208 11.5312 161.5 11.9375C161.802 12.3333 162.172 12.75 162.609 13.1875C163.057 13.6146 163.536 14.0625 164.047 14.5312C164.568 14.9896 165.047 15.4792 165.484 16C165.932 16.5104 166.302 17.0573 166.594 17.6406C166.896 18.224 167.047 18.849 167.047 19.5156C167.047 20.2656 166.917 20.9323 166.656 21.5156C166.406 22.099 166.042 22.5938 165.562 23C165.094 23.4062 164.521 23.7188 163.844 23.9375C163.177 24.1458 162.432 24.25 161.609 24.25C160.891 24.25 160.24 24.151 159.656 23.9531C159.073 23.7448 158.552 23.4948 158.094 23.2031C157.646 22.901 157.26 22.5833 156.938 22.25C156.615 21.9167 156.365 21.6146 156.188 21.3438L156.734 20.9531C156.87 21.1094 157.042 21.2812 157.25 21.4688C157.458 21.6458 157.688 21.8125 157.938 21.9688C158.198 22.125 158.474 22.2552 158.766 22.3594C159.057 22.4531 159.354 22.5 159.656 22.5C160.406 22.5 161.021 22.3229 161.5 21.9688C161.979 21.6042 162.219 21.0677 162.219 20.3594C162.219 19.9635 162.089 19.5573 161.828 19.1406C161.568 18.7135 161.24 18.276 160.844 17.8281C160.448 17.3802 160.021 16.9167 159.562 16.4375C159.104 15.9583 158.677 15.4635 158.281 14.9531C157.885 14.4427 157.557 13.9167 157.297 13.375C157.036 12.8333 156.906 12.2708 156.906 11.6875C156.906 11.0312 157.036 10.4583 157.297 9.96875C157.568 9.47917 157.922 9.07292 158.359 8.75C158.807 8.42708 159.312 8.1875 159.875 8.03125C160.448 7.86458 161.036 7.78125 161.641 7.78125C162.339 7.78125 162.974 7.84375 163.547 7.96875C164.12 8.09375 164.609 8.28646 165.016 8.54688C165.432 8.79688 165.75 9.11458 165.969 9.5C166.198 9.88542 166.312 10.3333 166.312 10.8438C166.312 11.2396 166.182 11.5833 165.922 11.875C165.661 12.1667 165.297 12.3125 164.828 12.3125C164.38 12.3125 164.036 12.2188 163.797 12.0312C163.568 11.8333 163.453 11.5677 163.453 11.2344C163.453 11.0156 163.505 10.8438 163.609 10.7188C163.724 10.5938 163.849 10.4948 163.984 10.4219C164.12 10.3385 164.24 10.2708 164.344 10.2188C164.458 10.1562 164.516 10.0781 164.516 9.98438C164.516 9.69271 164.359 9.46354 164.047 9.29688C163.734 9.11979 163.333 9.03125 162.844 9.03125ZM173.984 16.8281C173.984 17.1615 174.031 17.526 174.125 17.9219C174.229 18.3073 174.375 18.6979 174.562 19.0938C174.75 19.4896 174.979 19.8698 175.25 20.2344C175.531 20.5885 175.849 20.9062 176.203 21.1875C176.568 21.4688 176.969 21.6927 177.406 21.8594C177.844 22.026 178.323 22.1094 178.844 22.1094C179.208 22.1094 179.547 22.0677 179.859 21.9844C180.172 21.901 180.464 21.7865 180.734 21.6406C181.005 21.4948 181.266 21.3281 181.516 21.1406C181.766 20.9427 182.016 20.7344 182.266 20.5156L182.656 20.8906C182.417 21.2135 182.109 21.5677 181.734 21.9531C181.359 22.3385 180.906 22.7031 180.375 23.0469C179.844 23.3802 179.224 23.6615 178.516 23.8906C177.807 24.1094 177 24.2188 176.094 24.2188C175.188 24.2188 174.302 24.0573 173.438 23.7344C172.583 23.401 171.823 22.9062 171.156 22.25C170.49 21.5938 169.953 20.776 169.547 19.7969C169.151 18.8177 168.953 17.6719 168.953 16.3594C168.953 15.4115 169.073 14.5417 169.312 13.75C169.552 12.9583 169.875 12.2448 170.281 11.6094C170.698 10.974 171.177 10.4167 171.719 9.9375C172.271 9.45833 172.849 9.0625 173.453 8.75C174.057 8.42708 174.672 8.1875 175.297 8.03125C175.932 7.86458 176.542 7.78125 177.125 7.78125C177.896 7.78125 178.568 7.86458 179.141 8.03125C179.714 8.19792 180.188 8.42188 180.562 8.70312C180.948 8.98438 181.234 9.3125 181.422 9.6875C181.609 10.0521 181.703 10.4375 181.703 10.8438C181.703 11.3333 181.562 11.776 181.281 12.1719C181 12.5573 180.625 12.8958 180.156 13.1875L173.984 16.8281ZM177.125 13.6562C177.26 13.5729 177.37 13.4948 177.453 13.4219C177.547 13.3385 177.62 13.2448 177.672 13.1406C177.724 13.026 177.76 12.8906 177.781 12.7344C177.812 12.5677 177.828 12.3646 177.828 12.125C177.828 11.8646 177.797 11.5781 177.734 11.2656C177.682 10.9427 177.589 10.6406 177.453 10.3594C177.318 10.0781 177.146 9.84375 176.938 9.65625C176.729 9.46875 176.479 9.375 176.188 9.375C175.812 9.375 175.49 9.48958 175.219 9.71875C174.958 9.9375 174.74 10.224 174.562 10.5781C174.396 10.9323 174.26 11.3385 174.156 11.7969C174.062 12.2448 173.99 12.6979 173.938 13.1562C173.885 13.6146 173.854 14.0573 173.844 14.4844C173.833 14.901 173.828 15.2552 173.828 15.5469L177.125 13.6562Z" fill="white"/>
</svg>
