<svg width="30" height="20" viewBox="0 0 241 52" fill="none" xmlns="http://www.w3.org/2000/svg">
<path d="M23.3594 32.3457H15.6279C15.0537 34.1504 14.4316 35.7158 13.7617 37.042C13.1055 38.3682 12.374 39.4688 11.5674 40.3438C10.7607 41.2188 9.87207 41.8682 8.90137 42.292C7.94434 42.7158 6.87109 42.9277 5.68164 42.9277C5.02539 42.9277 4.39648 42.8662 3.79492 42.7432C3.17969 42.6338 2.63965 42.4766 2.1748 42.2715C1.70996 42.0664 1.34082 41.8203 1.06738 41.5332C0.780273 41.2598 0.636719 40.959 0.636719 40.6309C0.636719 40.3848 0.677734 40.1387 0.759766 39.8926C0.828125 39.6328 0.930664 39.4004 1.06738 39.1953C1.2041 38.9766 1.375 38.8057 1.58008 38.6826C1.77148 38.5459 1.99023 38.4775 2.23633 38.4775C2.45508 38.4775 2.64648 38.6279 2.81055 38.9287C2.97461 39.2295 3.18652 39.5645 3.44629 39.9336C3.69238 40.2891 4.01367 40.6172 4.41016 40.918C4.80664 41.2188 5.35352 41.3691 6.05078 41.3691C6.76172 41.3691 7.43848 41.1982 8.08105 40.8564C8.72363 40.5146 9.33887 39.9814 9.92676 39.2568C10.5283 38.5186 11.1025 37.582 11.6494 36.4473C12.1963 35.3125 12.7295 33.9453 13.249 32.3457H8.40918V30.541H13.7822C14.2334 29.0098 14.6709 27.4648 15.0947 25.9062C15.5322 24.3477 15.9424 22.8506 16.3252 21.415C16.708 19.9795 17.0498 18.6396 17.3506 17.3955C17.6514 16.1377 17.9043 15.0439 18.1094 14.1143C17.8359 13.3486 17.46 12.8359 16.9814 12.5762C16.5166 12.3164 15.8877 12.1865 15.0947 12.1865C14.3564 12.1865 13.5908 12.3027 12.7979 12.5352C12.0186 12.7539 11.3076 13.0752 10.665 13.499C10.0225 13.9092 9.48926 14.4219 9.06543 15.0371C8.65527 15.6387 8.4502 16.3154 8.4502 17.0674C8.4502 17.5049 8.50488 17.8535 8.61426 18.1133C8.7373 18.373 8.87402 18.5713 9.02441 18.708C9.18848 18.8311 9.3457 18.9131 9.49609 18.9541C9.64648 18.9814 9.7627 18.9951 9.84473 18.9951C10.1729 18.9951 10.4463 18.9404 10.665 18.8311C10.8975 18.708 11.0957 18.585 11.2598 18.4619C11.4375 18.3252 11.6084 18.2021 11.7725 18.0928C11.9365 17.9697 12.1211 17.9082 12.3262 17.9082C12.4766 17.9082 12.6406 17.9492 12.8184 18.0312C13.0098 18.0996 13.1807 18.2158 13.3311 18.3799C13.4951 18.5439 13.6318 18.7627 13.7412 19.0361C13.8506 19.2959 13.9053 19.6172 13.9053 20C13.9053 20.5469 13.7959 21.0186 13.5771 21.415C13.3721 21.8115 13.0986 22.1465 12.7568 22.4199C12.4287 22.6797 12.0459 22.8779 11.6084 23.0146C11.1846 23.1377 10.7607 23.1992 10.3369 23.1992C9.68066 23.1992 9.08594 23.083 8.55273 22.8506C8.0332 22.6045 7.58887 22.2764 7.21973 21.8662C6.85059 21.4561 6.57031 20.9775 6.37891 20.4307C6.1875 19.8838 6.0918 19.3096 6.0918 18.708C6.0918 17.8057 6.24219 16.9785 6.54297 16.2266C6.84375 15.4609 7.26074 14.7705 7.79395 14.1553C8.32715 13.5264 8.95605 12.9795 9.68066 12.5146C10.4053 12.0361 11.1846 11.6396 12.0186 11.3252C12.8662 10.9971 13.748 10.751 14.6641 10.5869C15.5801 10.4229 16.5029 10.3408 17.4326 10.3408C18.7451 10.3408 19.8525 10.4502 20.7549 10.6689C21.6709 10.874 22.4365 11.1885 23.0518 11.6123C23.667 12.0225 24.1592 12.5488 24.5283 13.1914C24.9111 13.8203 25.2256 14.5518 25.4717 15.3857L29.8809 30.541H34.3311V32.3457H30.373L31.9727 37.7188C32.0273 37.9238 32.082 38.1152 32.1367 38.293C32.1914 38.4707 32.2529 38.6279 32.3213 38.7646C32.4033 38.8877 32.499 38.9902 32.6084 39.0723C32.7314 39.1543 32.8818 39.1953 33.0596 39.1953C33.4424 39.1953 33.7979 39.1338 34.126 39.0107C34.4541 38.874 34.7412 38.7373 34.9873 38.6006L35.3359 39.3594C35.0898 39.5371 34.7754 39.7422 34.3926 39.9746C34.0234 40.1934 33.5928 40.4053 33.1006 40.6104C32.6221 40.8154 32.0889 40.9863 31.501 41.123C30.9131 41.2598 30.2842 41.3281 29.6143 41.3281C28.6846 41.3281 27.9326 41.2119 27.3584 40.9795C26.7979 40.7471 26.3535 40.46 26.0254 40.1182C25.7109 39.7764 25.4785 39.4141 25.3281 39.0312C25.1914 38.6484 25.082 38.3135 25 38.0264L23.3594 32.3457ZM19.3809 18.4824C18.8203 20.7656 18.2734 22.9121 17.7402 24.9219C17.2207 26.9316 16.7012 28.8047 16.1816 30.541H22.8672L19.3809 18.4824ZM44.4414 24.04C44.9609 23.2471 45.5146 22.5293 46.1025 21.8867C46.3486 21.6133 46.6152 21.3467 46.9023 21.0869C47.1895 20.8271 47.4834 20.5947 47.7842 20.3896C48.0986 20.1846 48.4199 20.0205 48.748 19.8975C49.0762 19.7744 49.4043 19.7129 49.7324 19.7129C50.4297 19.7129 50.9766 19.9248 51.373 20.3486C51.7695 20.7588 51.9678 21.3398 51.9678 22.0918C51.9678 22.5566 51.9268 23.0078 51.8447 23.4453C51.7764 23.8691 51.6328 24.3887 51.4141 25.0039H50.8398C50.7578 24.5801 50.5664 24.2314 50.2656 23.958C49.9648 23.6709 49.5273 23.5273 48.9531 23.5273C48.5293 23.5273 48.1123 23.6094 47.7021 23.7734C47.292 23.9238 46.8887 24.1152 46.4922 24.3477C46.1094 24.5801 45.7402 24.833 45.3848 25.1064C45.043 25.3799 44.7285 25.6396 44.4414 25.8857V39.1953C44.4414 39.373 44.4141 39.585 44.3594 39.8311C44.3047 40.0771 44.168 40.3096 43.9492 40.5283C43.7441 40.7471 43.4297 40.9316 43.0059 41.082C42.5957 41.2461 42.0283 41.3281 41.3037 41.3281C40.5791 41.3281 40.0049 41.2393 39.5811 41.0615C39.1709 40.8975 38.8564 40.6992 38.6377 40.4668C38.4189 40.2344 38.2822 39.9951 38.2275 39.749C38.1729 39.5029 38.1455 39.3047 38.1455 39.1543V23.3223C38.1455 22.9258 38.0498 22.584 37.8584 22.2969C37.6807 21.9961 37.373 21.8457 36.9355 21.8457C36.7031 21.8457 36.5049 21.8867 36.3408 21.9688C36.1768 22.0508 35.999 22.167 35.8076 22.3174L35.377 21.8047C35.6914 21.5449 36.04 21.292 36.4229 21.0459C36.8193 20.7861 37.2432 20.5605 37.6943 20.3691C38.1455 20.1777 38.6309 20.0205 39.1504 19.8975C39.6699 19.7744 40.2168 19.7129 40.791 19.7129C41.3789 19.7129 41.8779 19.7949 42.2881 19.959C42.7119 20.1094 43.0537 20.3145 43.3135 20.5742C43.5869 20.8203 43.7988 21.1006 43.9492 21.415C44.0996 21.7295 44.209 22.0508 44.2773 22.3789C44.3594 22.6934 44.4072 23.001 44.4209 23.3018C44.4346 23.5889 44.4414 23.835 44.4414 24.04ZM61.2373 21.4766V36.6318C61.2373 37.3564 61.374 37.8623 61.6475 38.1494C61.9209 38.4229 62.2969 38.5596 62.7754 38.5596C63.1445 38.5596 63.4727 38.457 63.7598 38.252C64.0469 38.0469 64.293 37.8145 64.498 37.5547C64.7441 37.2676 64.9561 36.9326 65.1338 36.5498L65.7695 36.8369C65.5645 37.2744 65.3184 37.7529 65.0312 38.2725C64.7578 38.792 64.3887 39.2773 63.9238 39.7285C63.459 40.166 62.8711 40.5352 62.1602 40.8359C61.4629 41.1367 60.5811 41.2871 59.5146 41.2871C58.9131 41.2871 58.332 41.1982 57.7715 41.0205C57.2246 40.8428 56.7324 40.5625 56.2949 40.1797C55.8711 39.7969 55.5293 39.3184 55.2695 38.7441C55.0098 38.1699 54.8799 37.4795 54.8799 36.6729V21.4766H52.583V20C52.9658 20 53.499 19.9043 54.1826 19.7129C54.8662 19.5078 55.5635 19.1729 56.2744 18.708C56.999 18.2432 57.6689 17.6211 58.2842 16.8418C58.8994 16.0625 59.3369 15.0986 59.5967 13.9502H61.2373V20H64.5801C65.6738 20 66.2207 19.8154 66.2207 19.4463C66.2207 19.3096 66.1523 19.2207 66.0156 19.1797C65.8789 19.125 65.7217 19.0635 65.5439 18.9951C65.3799 18.9131 65.2295 18.8037 65.0928 18.667C64.9561 18.5303 64.8877 18.3047 64.8877 17.9902C64.8877 17.6074 65.0039 17.3066 65.2363 17.0879C65.4824 16.8691 65.7969 16.7598 66.1797 16.7598C66.4258 16.7598 66.6377 16.8145 66.8154 16.9238C67.0068 17.0195 67.1641 17.1562 67.2871 17.334C67.4102 17.498 67.499 17.6895 67.5537 17.9082C67.6221 18.127 67.6562 18.3457 67.6562 18.5645C67.6562 19.4531 67.3965 20.1641 66.877 20.6973C66.3711 21.2168 65.5508 21.4766 64.416 21.4766H61.2373ZM76.167 13.9502C76.167 13.5127 76.0029 13.1914 75.6748 12.9863C75.3604 12.7676 75.0117 12.6582 74.6289 12.6582C73.8633 12.6582 73.1182 12.7744 72.3936 13.0068C71.6689 13.2256 71.0195 13.5332 70.4453 13.9297C69.8711 14.3125 69.4062 14.7773 69.0508 15.3242C68.709 15.8574 68.5381 16.4385 68.5381 17.0674C68.5381 17.5049 68.5928 17.8535 68.7021 18.1133C68.8252 18.373 68.9619 18.5713 69.1123 18.708C69.2627 18.8311 69.4131 18.9131 69.5635 18.9541C69.7275 18.9814 69.8438 18.9951 69.9121 18.9951C70.2539 18.9951 70.5342 18.9404 70.7529 18.8311C70.9717 18.708 71.1699 18.585 71.3477 18.4619C71.5254 18.3252 71.6895 18.2021 71.8398 18.0928C72.0039 17.9697 72.1885 17.9082 72.3936 17.9082C72.5576 17.9082 72.7285 17.9492 72.9062 18.0312C73.0977 18.0996 73.2686 18.2158 73.4189 18.3799C73.583 18.5439 73.7197 18.7627 73.8291 19.0361C73.9385 19.2959 73.9932 19.6172 73.9932 20C73.9932 20.5469 73.8838 21.0186 73.665 21.415C73.46 21.8115 73.1865 22.1465 72.8447 22.4199C72.5166 22.6797 72.1338 22.8779 71.6963 23.0146C71.2725 23.1377 70.8486 23.1992 70.4248 23.1992C69.7686 23.1992 69.1738 23.0898 68.6406 22.8711C68.1211 22.6387 67.6768 22.3242 67.3076 21.9277C66.9385 21.5312 66.6582 21.0664 66.4668 20.5332C66.2754 20 66.1797 19.4326 66.1797 18.8311C66.1797 17.1221 66.6104 15.7207 67.4717 14.627C68.333 13.5195 69.502 12.6514 70.9785 12.0225C72.4688 11.3799 74.1982 10.9424 76.167 10.71C78.1494 10.4639 80.2549 10.3408 82.4834 10.3408C85.0264 10.3408 87.3232 10.6006 89.374 11.1201C91.4385 11.626 93.2021 12.4531 94.665 13.6016C96.1279 14.75 97.2559 16.2539 98.0488 18.1133C98.8418 19.959 99.2383 22.2148 99.2383 24.8809C99.2383 27.5469 98.8145 29.9121 97.9668 31.9766C97.1328 34.041 95.9844 35.7773 94.5215 37.1855C93.0723 38.5801 91.3633 39.6465 89.3945 40.3848C87.4395 41.1094 85.3408 41.4717 83.0986 41.4717C81.6084 41.4717 80.4053 41.3965 79.4893 41.2461C78.5869 41.1094 77.8896 40.8701 77.3975 40.5283C76.9053 40.1729 76.5771 39.708 76.4131 39.1338C76.249 38.5459 76.167 37.8076 76.167 36.9189V13.9502ZM82.9346 37.1035C82.9346 37.8828 83.1055 38.4434 83.4473 38.7852C83.8027 39.1133 84.3223 39.2773 85.0059 39.2773C86.0312 39.2773 86.9746 39.0518 87.8359 38.6006C88.7109 38.1494 89.4629 37.377 90.0918 36.2832C90.7207 35.1758 91.2129 33.7061 91.5684 31.874C91.9238 30.042 92.1016 27.7383 92.1016 24.9629C92.1016 23.1035 91.9854 21.4971 91.7529 20.1436C91.5342 18.7764 91.2402 17.6211 90.8711 16.6777C90.502 15.7207 90.0781 14.9482 89.5996 14.3604C89.1348 13.7588 88.6562 13.2939 88.1641 12.9658C87.6719 12.624 87.1865 12.3984 86.708 12.2891C86.2432 12.166 85.8262 12.1045 85.457 12.1045C84.5684 12.1045 83.9258 12.3027 83.5293 12.6992C83.1328 13.0957 82.9346 13.8066 82.9346 14.832V37.1035ZM110.025 39.1543C110.025 39.332 109.991 39.5508 109.923 39.8105C109.868 40.0566 109.725 40.2959 109.492 40.5283C109.273 40.7471 108.952 40.9316 108.528 41.082C108.104 41.2461 107.53 41.3281 106.806 41.3281C106.081 41.3281 105.514 41.2393 105.104 41.0615C104.693 40.8975 104.386 40.6992 104.181 40.4668C103.976 40.2344 103.846 39.9951 103.791 39.749C103.75 39.5029 103.729 39.3047 103.729 39.1543V23.3223C103.729 22.9258 103.634 22.584 103.442 22.2969C103.265 21.9961 102.957 21.8457 102.52 21.8457C102.287 21.8457 102.089 21.8867 101.925 21.9688C101.761 22.0508 101.583 22.167 101.392 22.3174L100.961 21.8047C101.275 21.5449 101.624 21.292 102.007 21.0459C102.403 20.7861 102.827 20.5605 103.278 20.3691C103.729 20.1777 104.215 20.0205 104.734 19.8975C105.254 19.7744 105.801 19.7129 106.375 19.7129C107.264 19.7129 107.954 19.8359 108.446 20.082C108.938 20.3145 109.301 20.6084 109.533 20.9639C109.766 21.3057 109.902 21.6748 109.943 22.0713C109.998 22.4678 110.025 22.8164 110.025 23.1172V39.1543ZM103.094 15.0371C103.094 14.6543 103.176 14.292 103.34 13.9502C103.518 13.5947 103.757 13.2871 104.058 13.0273C104.372 12.7676 104.728 12.5625 105.124 12.4121C105.534 12.2617 105.979 12.1865 106.457 12.1865C106.922 12.1865 107.353 12.2617 107.749 12.4121C108.159 12.5625 108.515 12.7676 108.815 13.0273C109.116 13.2871 109.349 13.5947 109.513 13.9502C109.69 14.292 109.779 14.6543 109.779 15.0371C109.779 15.4336 109.69 15.8027 109.513 16.1445C109.349 16.4863 109.116 16.7871 108.815 17.0469C108.515 17.293 108.159 17.4912 107.749 17.6416C107.353 17.792 106.922 17.8672 106.457 17.8672C105.979 17.8672 105.534 17.792 105.124 17.6416C104.728 17.4912 104.372 17.293 104.058 17.0469C103.757 16.7871 103.518 16.4863 103.34 16.1445C103.176 15.8027 103.094 15.4336 103.094 15.0371ZM127.272 30.7871C127.272 29.0645 127.19 27.6904 127.026 26.665C126.876 25.626 126.671 24.8398 126.411 24.3066C126.151 23.7598 125.864 23.4043 125.55 23.2402C125.235 23.0625 124.914 22.9736 124.586 22.9736C124.189 22.9736 123.834 23.083 123.52 23.3018C123.219 23.5068 122.952 23.7461 122.72 24.0195C122.501 24.293 122.31 24.5664 122.146 24.8398C121.995 25.1133 121.865 25.3184 121.756 25.4551V39.1543C121.756 39.332 121.729 39.5508 121.674 39.8105C121.619 40.0566 121.482 40.2959 121.264 40.5283C121.059 40.7471 120.744 40.9316 120.32 41.082C119.91 41.2461 119.343 41.3281 118.618 41.3281C117.894 41.3281 117.319 41.2393 116.896 41.0615C116.485 40.8975 116.171 40.6992 115.952 40.4668C115.733 40.2344 115.597 39.9951 115.542 39.749C115.487 39.5029 115.46 39.3047 115.46 39.1543V23.3223C115.46 22.9258 115.364 22.584 115.173 22.2969C114.995 21.9961 114.688 21.8457 114.25 21.8457C114.018 21.8457 113.819 21.8867 113.655 21.9688C113.491 22.0508 113.313 22.167 113.122 22.3174L112.691 21.8047C113.006 21.5449 113.354 21.292 113.737 21.0459C114.134 20.7861 114.558 20.5605 115.009 20.3691C115.46 20.1777 115.945 20.0205 116.465 19.8975C116.984 19.7744 117.531 19.7129 118.105 19.7129C118.994 19.7129 119.685 19.8633 120.177 20.1641C120.669 20.4512 121.031 20.7998 121.264 21.21C121.496 21.6201 121.633 22.0508 121.674 22.502C121.729 22.9395 121.756 23.3086 121.756 23.6094C122.262 22.8848 122.836 22.2354 123.479 21.6611C123.738 21.415 124.025 21.1758 124.34 20.9434C124.668 20.7109 125.01 20.5059 125.365 20.3281C125.734 20.1367 126.117 19.9863 126.514 19.877C126.924 19.7676 127.341 19.7129 127.765 19.7129C128.694 19.7129 129.515 19.8906 130.226 20.2461C130.95 20.6016 131.559 21.1963 132.051 22.0303C132.543 22.8643 132.919 23.9717 133.179 25.3525C133.438 26.7197 133.568 28.4219 133.568 30.459C133.568 32.4414 133.391 34.1641 133.035 35.627C132.68 37.0898 132.215 38.334 131.641 39.3594C131.066 40.3848 130.417 41.2188 129.692 41.8613C128.968 42.5176 128.236 43.0303 127.498 43.3994C126.76 43.7686 126.049 44.0215 125.365 44.1582C124.695 44.3086 124.114 44.3906 123.622 44.4043L123.396 43.5635C123.807 43.4678 124.183 43.3174 124.524 43.1123C124.88 42.9072 125.201 42.6064 125.488 42.21C125.775 41.8135 126.028 41.3145 126.247 40.7129C126.466 40.0977 126.65 39.332 126.801 38.416C126.965 37.5 127.081 36.4199 127.149 35.1758C127.231 33.918 127.272 32.4551 127.272 30.7871ZM143.104 31.5869C143.104 32.0244 143.166 32.5029 143.289 33.0225C143.426 33.5283 143.617 34.041 143.863 34.5605C144.109 35.0801 144.41 35.5791 144.766 36.0576C145.135 36.5225 145.552 36.9395 146.017 37.3086C146.495 37.6777 147.021 37.9717 147.596 38.1904C148.17 38.4092 148.799 38.5186 149.482 38.5186C149.961 38.5186 150.405 38.4639 150.815 38.3545C151.226 38.2451 151.608 38.0947 151.964 37.9033C152.319 37.7119 152.661 37.4932 152.989 37.2471C153.317 36.9873 153.646 36.7139 153.974 36.4268L154.486 36.9189C154.172 37.3428 153.769 37.8076 153.276 38.3135C152.784 38.8193 152.189 39.2979 151.492 39.749C150.795 40.1865 149.981 40.5557 149.052 40.8564C148.122 41.1436 147.062 41.2871 145.873 41.2871C144.684 41.2871 143.521 41.0752 142.387 40.6514C141.266 40.2139 140.268 39.5645 139.393 38.7031C138.518 37.8418 137.813 36.7686 137.28 35.4834C136.761 34.1982 136.501 32.6943 136.501 30.9717C136.501 29.7275 136.658 28.5859 136.973 27.5469C137.287 26.5078 137.711 25.5713 138.244 24.7373C138.791 23.9033 139.42 23.1719 140.131 22.543C140.855 21.9141 141.614 21.3945 142.407 20.9844C143.2 20.5605 144.007 20.2461 144.827 20.041C145.661 19.8223 146.461 19.7129 147.227 19.7129C148.238 19.7129 149.12 19.8223 149.872 20.041C150.624 20.2598 151.246 20.5537 151.738 20.9229C152.244 21.292 152.62 21.7227 152.866 22.2148C153.112 22.6934 153.235 23.1992 153.235 23.7324C153.235 24.375 153.051 24.9561 152.682 25.4756C152.312 25.9814 151.82 26.4258 151.205 26.8086L143.104 31.5869ZM147.227 27.4238C147.404 27.3145 147.548 27.2119 147.657 27.1162C147.78 27.0068 147.876 26.8838 147.944 26.7471C148.013 26.5967 148.061 26.4189 148.088 26.2139C148.129 25.9951 148.149 25.7285 148.149 25.4141C148.149 25.0723 148.108 24.6963 148.026 24.2861C147.958 23.8623 147.835 23.4658 147.657 23.0967C147.479 22.7275 147.254 22.4199 146.98 22.1738C146.707 21.9277 146.379 21.8047 145.996 21.8047C145.504 21.8047 145.08 21.9551 144.725 22.2559C144.383 22.543 144.096 22.9189 143.863 23.3838C143.645 23.8486 143.467 24.3818 143.33 24.9834C143.207 25.5713 143.111 26.166 143.043 26.7676C142.975 27.3691 142.934 27.9502 142.92 28.5107C142.906 29.0576 142.899 29.5225 142.899 29.9053L147.227 27.4238ZM154.691 19.2412C154.691 17.6416 155.129 16.2812 156.004 15.1602C156.893 14.0391 158.103 13.123 159.634 12.4121C161.165 11.6875 162.949 11.1611 164.986 10.833C167.023 10.5049 169.204 10.3408 171.528 10.3408C172.636 10.3408 173.716 10.3545 174.769 10.3818C175.821 10.3955 176.778 10.4229 177.64 10.4639C178.515 10.5049 179.267 10.5527 179.896 10.6074C180.524 10.6621 180.982 10.7236 181.27 10.792C181.543 10.8604 181.762 10.9355 181.926 11.0176C182.09 11.0996 182.213 11.1953 182.295 11.3047C182.377 11.4141 182.432 11.5439 182.459 11.6943C182.486 11.8311 182.5 11.9951 182.5 12.1865C182.5 12.3506 182.479 12.5352 182.438 12.7402C182.397 12.9316 182.336 13.1162 182.254 13.2939C182.172 13.458 182.069 13.6016 181.946 13.7246C181.823 13.8477 181.673 13.9092 181.495 13.9092C181.386 13.9092 181.263 13.8613 181.126 13.7656C181.003 13.6699 180.818 13.5469 180.572 13.3965C180.34 13.2461 180.019 13.0889 179.608 12.9248C179.212 12.7607 178.672 12.6035 177.988 12.4531C177.318 12.3027 176.478 12.1797 175.466 12.084C174.468 11.9883 173.258 11.9404 171.836 11.9404V25.0859H180.347V26.8906H171.836V34.9092C171.836 35.5518 171.932 36.1055 172.123 36.5703C172.314 37.0215 172.588 37.3975 172.943 37.6982C173.299 37.999 173.723 38.2178 174.215 38.3545C174.721 38.4912 175.281 38.5596 175.896 38.5596C176.594 38.5596 177.291 38.4912 177.988 38.3545C178.686 38.2041 179.342 38.0195 179.957 37.8008C180.586 37.582 181.153 37.3359 181.659 37.0625C182.179 36.7891 182.596 36.5225 182.91 36.2627L183.71 37.1445C183.368 37.418 182.91 37.7939 182.336 38.2725C181.762 38.7373 181.058 39.1953 180.224 39.6465C179.403 40.0977 178.439 40.4941 177.332 40.8359C176.238 41.1641 174.994 41.3281 173.6 41.3281C173.135 41.3281 172.602 41.3008 172 41.2461C171.412 41.2051 170.804 41.1162 170.175 40.9795C169.546 40.8291 168.924 40.6172 168.309 40.3438C167.707 40.0566 167.167 39.6807 166.688 39.2158C166.224 38.751 165.841 38.1836 165.54 37.5137C165.253 36.8301 165.109 36.0166 165.109 35.0732V26.8906H161.91V25.0859H165.109V12.1865C164.672 12.2275 164.166 12.3096 163.592 12.4326C163.031 12.542 162.45 12.7061 161.849 12.9248C161.261 13.1299 160.68 13.376 160.105 13.6631C159.531 13.9502 159.019 14.2852 158.567 14.668C158.116 15.0508 157.747 15.4814 157.46 15.96C157.187 16.4248 157.05 16.9307 157.05 17.4775C157.05 17.915 157.104 18.2637 157.214 18.5234C157.337 18.7832 157.474 18.9814 157.624 19.1182C157.774 19.2412 157.925 19.3232 158.075 19.3643C158.239 19.3916 158.355 19.4053 158.424 19.4053C158.766 19.4053 159.046 19.3506 159.265 19.2412C159.483 19.1182 159.682 18.9951 159.859 18.8721C160.037 18.7354 160.201 18.6123 160.352 18.5029C160.516 18.3799 160.7 18.3184 160.905 18.3184C161.069 18.3184 161.24 18.3594 161.418 18.4414C161.609 18.5098 161.78 18.626 161.931 18.79C162.095 18.9541 162.231 19.1729 162.341 19.4463C162.45 19.7061 162.505 20.0273 162.505 20.4102C162.505 20.957 162.396 21.4355 162.177 21.8457C161.972 22.2422 161.698 22.5703 161.356 22.8301C161.028 23.0898 160.646 23.2881 160.208 23.4248C159.784 23.5479 159.36 23.6094 158.937 23.6094C158.28 23.6094 157.686 23.5 157.152 23.2812C156.633 23.0488 156.188 22.7344 155.819 22.3379C155.45 21.9414 155.17 21.4834 154.979 20.9639C154.787 20.4307 154.691 19.8564 154.691 19.2412ZM195.522 30.377C195.522 30.0352 195.413 29.7754 195.194 29.5977C194.976 29.4199 194.695 29.3311 194.354 29.3311C193.875 29.3311 193.417 29.4404 192.979 29.6592C192.556 29.8779 192.18 30.1992 191.852 30.623C191.523 31.0469 191.264 31.5732 191.072 32.2021C190.881 32.8174 190.785 33.5352 190.785 34.3555C190.785 35.1484 190.84 35.8047 190.949 36.3242C191.072 36.8438 191.229 37.2607 191.421 37.5752C191.626 37.876 191.858 38.0879 192.118 38.2109C192.378 38.334 192.651 38.3955 192.938 38.3955C193.294 38.3955 193.629 38.3066 193.943 38.1289C194.258 37.9375 194.531 37.6982 194.764 37.4111C194.996 37.124 195.181 36.8027 195.317 36.4473C195.454 36.0918 195.522 35.7363 195.522 35.3809V30.377ZM192.262 21.3945C191.797 21.3945 191.366 21.4492 190.97 21.5586C190.573 21.668 190.231 21.8047 189.944 21.9688C189.657 22.1328 189.432 22.3174 189.268 22.5225C189.104 22.7139 189.021 22.8984 189.021 23.0762C189.021 23.2812 189.124 23.4316 189.329 23.5273C189.548 23.6094 189.787 23.7119 190.047 23.835C190.307 23.9443 190.539 24.1084 190.744 24.3271C190.963 24.5322 191.072 24.8535 191.072 25.291C191.072 25.5781 191.011 25.8447 190.888 26.0908C190.778 26.3232 190.621 26.5352 190.416 26.7266C190.225 26.9043 189.992 27.0479 189.719 27.1572C189.459 27.2529 189.186 27.3008 188.898 27.3008C188.133 27.3008 187.511 27.041 187.032 26.5215C186.567 26.002 186.335 25.3115 186.335 24.4502C186.335 23.6162 186.554 22.9053 186.991 22.3174C187.429 21.7158 187.996 21.2236 188.693 20.8408C189.404 20.458 190.204 20.1777 191.093 20C191.981 19.8086 192.87 19.7129 193.759 19.7129C194.825 19.7129 195.844 19.8291 196.814 20.0615C197.785 20.2939 198.64 20.6631 199.378 21.1689C200.13 21.6748 200.725 22.3174 201.162 23.0967C201.613 23.876 201.839 24.8193 201.839 25.9268V37.5137C201.839 37.6367 201.846 37.7734 201.859 37.9238C201.873 38.0742 201.907 38.2109 201.962 38.334C202.017 38.457 202.099 38.5596 202.208 38.6416C202.317 38.7236 202.475 38.7646 202.68 38.7646C202.926 38.7646 203.151 38.6758 203.356 38.498C203.575 38.3066 203.767 38.1152 203.931 37.9238L204.443 38.3545C204.238 38.6416 203.992 38.9561 203.705 39.2979C203.418 39.6396 203.069 39.9609 202.659 40.2617C202.249 40.5625 201.771 40.8154 201.224 41.0205C200.677 41.2256 200.055 41.3281 199.357 41.3281C198.496 41.3281 197.73 41.0752 197.061 40.5693C196.391 40.0498 195.953 39.2568 195.748 38.1904C195.311 38.7783 194.853 39.2705 194.374 39.667C193.909 40.0635 193.431 40.3848 192.938 40.6309C192.446 40.877 191.947 41.0547 191.441 41.1641C190.949 41.2734 190.45 41.3281 189.944 41.3281C189.288 41.3281 188.652 41.2256 188.037 41.0205C187.422 40.8154 186.868 40.4941 186.376 40.0566C185.897 39.6055 185.508 39.0244 185.207 38.3135C184.92 37.6025 184.776 36.7344 184.776 35.709C184.776 34.4648 185.022 33.4463 185.515 32.6533C186.007 31.8604 186.649 31.1973 187.442 30.6641C188.249 30.1172 189.158 29.6523 190.17 29.2695C191.195 28.8867 192.241 28.4834 193.308 28.0596C194.101 27.7451 194.675 27.2803 195.03 26.665C195.399 26.0361 195.584 25.3936 195.584 24.7373C195.584 23.7256 195.283 22.9189 194.682 22.3174C194.094 21.7021 193.287 21.3945 192.262 21.3945ZM213.795 21.3535C213.48 21.3535 213.18 21.3945 212.893 21.4766C212.619 21.5586 212.373 21.6953 212.154 21.8867C211.936 22.0645 211.765 22.2969 211.642 22.584C211.519 22.8574 211.457 23.1855 211.457 23.5684C211.457 24.1016 211.648 24.6348 212.031 25.168C212.428 25.6875 212.913 26.2344 213.487 26.8086C214.075 27.3691 214.704 27.957 215.374 28.5723C216.058 29.1738 216.687 29.8164 217.261 30.5C217.849 31.1699 218.334 31.8877 218.717 32.6533C219.113 33.4189 219.312 34.2393 219.312 35.1143C219.312 36.0986 219.141 36.9736 218.799 37.7393C218.471 38.5049 217.992 39.1543 217.363 39.6875C216.748 40.2207 215.996 40.6309 215.107 40.918C214.232 41.1914 213.255 41.3281 212.175 41.3281C211.231 41.3281 210.377 41.1982 209.611 40.9385C208.846 40.665 208.162 40.3369 207.561 39.9541C206.973 39.5576 206.467 39.1406 206.043 38.7031C205.619 38.2656 205.291 37.8691 205.059 37.5137L205.776 37.001C205.954 37.2061 206.18 37.4316 206.453 37.6777C206.727 37.9102 207.027 38.1289 207.355 38.334C207.697 38.5391 208.06 38.71 208.442 38.8467C208.825 38.9697 209.215 39.0312 209.611 39.0312C210.596 39.0312 211.402 38.7988 212.031 38.334C212.66 37.8555 212.975 37.1514 212.975 36.2217C212.975 35.7021 212.804 35.1689 212.462 34.6221C212.12 34.0615 211.689 33.4873 211.17 32.8994C210.65 32.3115 210.09 31.7031 209.488 31.0742C208.887 30.4453 208.326 29.7959 207.807 29.126C207.287 28.4561 206.856 27.7656 206.515 27.0547C206.173 26.3438 206.002 25.6055 206.002 24.8398C206.002 23.9785 206.173 23.2266 206.515 22.584C206.87 21.9414 207.335 21.4082 207.909 20.9844C208.497 20.5605 209.16 20.2461 209.898 20.041C210.65 19.8223 211.423 19.7129 212.216 19.7129C213.132 19.7129 213.966 19.7949 214.718 19.959C215.47 20.123 216.112 20.376 216.646 20.7178C217.192 21.0459 217.609 21.4629 217.896 21.9688C218.197 22.4746 218.348 23.0625 218.348 23.7324C218.348 24.252 218.177 24.7031 217.835 25.0859C217.493 25.4688 217.015 25.6602 216.399 25.6602C215.812 25.6602 215.36 25.5371 215.046 25.291C214.745 25.0312 214.595 24.6826 214.595 24.2451C214.595 23.958 214.663 23.7324 214.8 23.5684C214.95 23.4043 215.114 23.2744 215.292 23.1787C215.47 23.0693 215.627 22.9805 215.764 22.9121C215.914 22.8301 215.989 22.7275 215.989 22.6045C215.989 22.2217 215.784 21.9209 215.374 21.7021C214.964 21.4697 214.438 21.3535 213.795 21.3535ZM228.417 31.5869C228.417 32.0244 228.479 32.5029 228.602 33.0225C228.738 33.5283 228.93 34.041 229.176 34.5605C229.422 35.0801 229.723 35.5791 230.078 36.0576C230.447 36.5225 230.864 36.9395 231.329 37.3086C231.808 37.6777 232.334 37.9717 232.908 38.1904C233.482 38.4092 234.111 38.5186 234.795 38.5186C235.273 38.5186 235.718 38.4639 236.128 38.3545C236.538 38.2451 236.921 38.0947 237.276 37.9033C237.632 37.7119 237.974 37.4932 238.302 37.2471C238.63 36.9873 238.958 36.7139 239.286 36.4268L239.799 36.9189C239.484 37.3428 239.081 37.8076 238.589 38.3135C238.097 38.8193 237.502 39.2979 236.805 39.749C236.107 40.1865 235.294 40.5557 234.364 40.8564C233.435 41.1436 232.375 41.2871 231.186 41.2871C229.996 41.2871 228.834 41.0752 227.699 40.6514C226.578 40.2139 225.58 39.5645 224.705 38.7031C223.83 37.8418 223.126 36.7686 222.593 35.4834C222.073 34.1982 221.813 32.6943 221.813 30.9717C221.813 29.7275 221.971 28.5859 222.285 27.5469C222.6 26.5078 223.023 25.5713 223.557 24.7373C224.104 23.9033 224.732 23.1719 225.443 22.543C226.168 21.9141 226.927 21.3945 227.72 20.9844C228.513 20.5605 229.319 20.2461 230.14 20.041C230.974 19.8223 231.773 19.7129 232.539 19.7129C233.551 19.7129 234.433 19.8223 235.185 20.041C235.937 20.2598 236.559 20.5537 237.051 20.9229C237.557 21.292 237.933 21.7227 238.179 22.2148C238.425 22.6934 238.548 23.1992 238.548 23.7324C238.548 24.375 238.363 24.9561 237.994 25.4756C237.625 25.9814 237.133 26.4258 236.518 26.8086L228.417 31.5869ZM232.539 27.4238C232.717 27.3145 232.86 27.2119 232.97 27.1162C233.093 27.0068 233.188 26.8838 233.257 26.7471C233.325 26.5967 233.373 26.4189 233.4 26.2139C233.441 25.9951 233.462 25.7285 233.462 25.4141C233.462 25.0723 233.421 24.6963 233.339 24.2861C233.271 23.8623 233.147 23.4658 232.97 23.0967C232.792 22.7275 232.566 22.4199 232.293 22.1738C232.02 21.9277 231.691 21.8047 231.309 21.8047C230.816 21.8047 230.393 21.9551 230.037 22.2559C229.695 22.543 229.408 22.9189 229.176 23.3838C228.957 23.8486 228.779 24.3818 228.643 24.9834C228.52 25.5713 228.424 26.166 228.355 26.7676C228.287 27.3691 228.246 27.9502 228.232 28.5107C228.219 29.0576 228.212 29.5225 228.212 29.9053L232.539 27.4238Z" fill="#2A6E4F"/>
</svg>
